<svg width="329" height="275" viewBox="0 0 329 275" fill="none" xmlns="http://www.w3.org/2000/svg">
<path d="M51.6078 23.6568C64.5098 23.6568 53.7581 40.8594 53.7581 63.4379H126.869C126.869 19.1103 99.2513 0.282581 72.0359 0.00321552C44.4622 -0.279828 17.2447 18.281 10.7516 18.281V39.7843C23.6535 39.7842 38.7058 23.6568 51.6078 23.6568Z" fill="#00A8E8"/>
<circle cx="10.7516" cy="29.0325" r="10.7516" fill="#00A8E8"/>
<ellipse cx="90.3136" cy="63.4378" rx="36.5556" ry="47.3072" fill="#00A8E8"/>
<path d="M236.536 125.797C221.484 116.121 208.582 104.294 208.582 70.9673H281.693C281.693 106.444 269.866 104.294 265.565 115.046C261.863 124.302 278.467 121.497 292.444 121.497V143C268.791 143 247.389 132.774 236.536 125.797Z" fill="#00A8E8"/>
<circle cx="292.445" cy="132.248" r="10.7516" fill="#00A8E8"/>
<ellipse cx="245.137" cy="68.8171" rx="36.5556" ry="47.3072" fill="#00A8E8"/>
<path d="M258.039 234.389C273.092 195.683 212.882 211.81 212.882 181.706H329C329 209.66 268.791 199.984 274.167 233.314C274.167 236.539 275.242 244.065 291.369 244.065V267.719C273.092 267.719 269.866 246.216 264.49 251.591C224.064 285.137 192.454 272.02 167.726 272.02V235.464C192.454 235.464 246.354 264.437 258.039 234.389Z" fill="#003459"/>
<circle cx="168.801" cy="253.742" r="18.2778" fill="#003459"/>
<circle cx="291.369" cy="255.892" r="11.8268" fill="#003459"/>
<ellipse cx="270.941" cy="181.706" rx="58.0588" ry="17.2026" fill="#00171F"/>
</svg>
